<svg width="165" height="80" viewBox="0 0 165 80" fill="none" xmlns="http://www.w3.org/2000/svg">
<path d="M5.34736 76.8C2.59999 76.8 0.399994 74.9473 0.399994 72.0421C0.399994 69.3158 2.62105 67.2842 5.34736 67.2842C6.25263 67.2842 7.09473 67.5473 7.82105 67.9894L7.23157 68.9579C6.6842 68.6105 6.03157 68.4 5.34736 68.4C3.27368 68.4 1.74736 69.9263 1.74736 72.0315C1.74736 74.2737 3.2421 75.6631 5.34736 75.6631C6.07368 75.6631 6.73684 75.4526 7.38947 75.021L8.06315 75.9579C7.26315 76.4947 6.32631 76.8 5.34736 76.8Z" fill="#00326E"/>
<path d="M15.4 73.3582C15.4 75.274 13.9684 76.8003 12.0421 76.8003C10.1263 76.8003 8.6842 75.274 8.6842 73.3582C8.6842 71.4319 10.1158 69.9161 12.0421 69.9161C13.9579 69.9055 15.4 71.4319 15.4 73.3582ZM12.0421 71.0108C10.8105 71.0108 9.91578 72.074 9.91578 73.3476C9.91578 74.6213 10.8105 75.6845 12.0421 75.6845C13.2737 75.6845 14.1684 74.6213 14.1684 73.3476C14.1684 72.0845 13.2737 71.0108 12.0421 71.0108Z" fill="#00326E"/>
<path d="M18.1052 70.0632V70.9474C18.5789 70.2632 19.4105 69.9053 20.2 69.9053C22.0947 69.9053 23.4842 71.4316 23.4842 73.3684C23.4842 75.1053 22.1789 76.8 20.1684 76.8C19.3895 76.8 18.6316 76.4737 18.1052 75.9263V79.9263H16.9052V70.0632H18.1052ZM18.1052 74.6947C18.5473 75.3368 19.3263 75.6947 20.0105 75.6947C21.5368 75.6947 22.2631 74.4737 22.2631 73.3368C22.2631 72.1158 21.4105 71.0105 20.0421 71.0105C19.3368 71.0105 18.4421 71.4421 18.1052 72.2632V74.6947Z" fill="#00326E"/>
<path d="M25.3053 70.0635L27.0105 75.053H27.0316L28.7789 70.0635H30.0842L26.3895 79.6003L25.3368 79.1898L26.3789 76.4424L23.9684 70.0635H25.3053Z" fill="#00326E"/>
<path d="M32.3263 71.1579C32.7263 70.4526 33.3158 69.9053 34.0211 69.9053C34.2947 69.9053 34.4842 69.9368 34.7263 69.9895L34.5053 71.2632C34.3053 71.1684 34.1368 71.1263 33.8842 71.1263C33.2105 71.1263 32.7263 71.5263 32.3158 72.2316V76.6421H31.1158V70.0632H32.3158V71.1579H32.3263Z" fill="#00326E"/>
<path d="M35.6842 68.7792V67.4424H36.8842V68.7792H35.6842ZM35.6842 76.6424V70.0634H36.8842V76.6424H35.6842Z" fill="#00326E"/>
<path d="M44.979 76.2739C44.979 76.9581 44.8737 77.5371 44.6316 78.0002C44.0421 79.1476 42.8947 79.5686 41.6632 79.5686C40.6526 79.5686 39.5474 79.2739 38.7579 78.695L39.2211 77.6739C39.8211 78.1055 40.8105 78.4634 41.6421 78.4634C42.7684 78.4634 43.7895 77.9265 43.7895 76.516V75.6108C43.3158 76.3055 42.4737 76.6529 41.6842 76.6529C39.821 76.6529 38.4105 75.1792 38.4105 73.2844C38.4105 71.5581 39.7158 69.916 41.7263 69.916C42.4842 69.916 43.2632 70.2634 43.7895 70.8002V70.0739H44.9895V76.2739H44.979ZM43.7789 72.0108C43.3158 71.3687 42.5474 71.0108 41.8737 71.0108C40.3474 71.0108 39.6211 72.1792 39.6211 73.295C39.6211 74.4739 40.4842 75.5265 41.8316 75.5265C42.5368 75.5265 43.4316 75.095 43.7789 74.3055V72.0108Z" fill="#00326E"/>
<path d="M48.1579 71.1481C48.6421 70.3692 49.421 69.9166 50.3053 69.9166C51.221 69.9166 51.8316 70.2324 52.2105 70.7481C52.6526 71.3587 52.8 72.2324 52.8 73.2324V76.6534H51.6V73.3692C51.6 72.7271 51.5789 72.0324 51.2631 71.5587C51.0526 71.2429 50.6947 71.0324 50.1158 71.0324C49.3579 71.0324 48.6316 71.5587 48.1579 72.2955V76.6639H46.9579V66.8008H48.1579V71.1481Z" fill="#00326E"/>
<path d="M56.0526 71.1162V74.0846C56.0526 74.253 56.0526 74.4004 56.0632 74.6004C56.1053 75.2951 56.3263 75.7056 56.9895 75.7056C57.2526 75.7056 57.5158 75.632 57.7263 75.5267L58.0526 76.4846C57.7263 76.653 57.2632 76.7793 56.8316 76.7793C55.9053 76.7793 55.3474 76.3688 55.0737 75.7583C54.9158 75.3899 54.8632 74.9056 54.8632 74.3899V71.1267H53.9789V70.0741H54.8632V68.4951H56.0632V70.0741H57.8947V71.1267H56.0526V71.1162Z" fill="#00326E"/>
<path d="M66.9789 76.8C64.2316 76.8 62.0316 74.9473 62.0316 72.0421C62.0316 69.3158 64.2526 67.2842 66.9789 67.2842C67.8842 67.2842 68.7263 67.5473 69.4526 67.9894L68.8631 68.9579C68.3158 68.6105 67.6631 68.4 66.9789 68.4C64.9052 68.4 63.3789 69.9263 63.3789 72.0315C63.3789 74.2737 64.8737 75.6631 66.9789 75.6631C67.7052 75.6631 68.3684 75.4526 69.021 75.021L69.6947 75.9579C68.8947 76.4947 67.9579 76.8 66.9789 76.8Z" fill="#00326E"/>
<path d="M72.2632 76.6424H71.0632V66.7793H72.2632V76.6424Z" fill="#00326E"/>
<path d="M74.9789 73.6634C75.0631 74.8002 75.8316 75.7792 77.0947 75.7792C77.9579 75.7792 78.6631 75.4634 79.0526 74.716L79.9158 75.2634C79.2526 76.316 78.3684 76.8002 77.0316 76.8002C74.9368 76.8002 73.7684 75.2739 73.7684 73.3581C73.7684 71.4002 75.2 69.916 77.0316 69.916C78.7684 69.916 80.0316 71.2213 80.0316 72.9792C80.0316 73.2002 80.0105 73.495 79.9789 73.6634H74.9789ZM75.0631 72.695H78.8C78.7473 71.7581 78.0421 70.9371 77.0526 70.9371C75.9894 70.9371 75.3052 71.716 75.0631 72.695Z" fill="#00326E"/>
<path d="M85.4632 76.6423V75.9476C84.9263 76.5476 84.3263 76.8002 83.4842 76.8002C82.2737 76.8002 81.1579 76.2107 81.1579 74.8002C81.1579 73.1265 82.6421 72.6213 84.0947 72.6213C84.4211 72.6213 84.8421 72.6529 85.4105 72.7686V72.5371C85.4105 71.5371 84.9368 70.9581 83.8632 70.9581C83.1053 70.9581 82.2947 71.2423 81.7684 71.5371L81.4105 70.5371C82.0947 70.2108 83.0947 69.916 84 69.916C85.9053 69.916 86.6 70.9581 86.6 72.6529V76.6529H85.4632V76.6423ZM85.4105 73.6634C84.9263 73.5581 84.5579 73.5265 84.2316 73.5265C83.4105 73.5265 82.3368 73.7265 82.3368 74.716C82.3368 75.516 82.9474 75.8107 83.6421 75.8107C84.3158 75.8107 84.8947 75.4634 85.4211 75.0213V73.6634H85.4105Z" fill="#00326E"/>
<path d="M89.7895 71.1579C90.1895 70.4526 90.779 69.9053 91.4842 69.9053C91.7579 69.9053 91.9474 69.9368 92.1895 69.9895L91.9684 71.2632C91.7684 71.1684 91.6 71.1263 91.3474 71.1263C90.6737 71.1263 90.1895 71.5263 89.779 72.2316V76.6421H88.5789V70.0632H89.779V71.1579H89.7895Z" fill="#00326E"/>
<path d="M97.0526 76.6423V75.9476C96.5158 76.5476 95.9158 76.8002 95.0737 76.8002C93.8631 76.8002 92.7473 76.2107 92.7473 74.8002C92.7473 73.1265 94.2316 72.6213 95.6842 72.6213C96.0105 72.6213 96.4316 72.6529 97 72.7686V72.5371C97 71.5371 96.5263 70.9581 95.4526 70.9581C94.6947 70.9581 93.8842 71.2423 93.3579 71.5371L93 70.5371C93.6842 70.2108 94.6842 69.916 95.5894 69.916C97.4947 69.916 98.1895 70.9581 98.1895 72.6529V76.6529H97.0526V76.6423ZM97 73.6634C96.5158 73.5581 96.1473 73.5265 95.821 73.5265C95 73.5265 93.9263 73.7265 93.9263 74.716C93.9263 75.516 94.5368 75.8107 95.2316 75.8107C95.9052 75.8107 96.4842 75.4634 97.0105 75.0213V73.6634H97Z" fill="#00326E"/>
<path d="M101.379 70.0632V71.1369C101.863 70.3579 102.642 69.9053 103.526 69.9053C104.453 69.9053 105.053 70.2211 105.432 70.7368C105.874 71.3474 106.021 72.2211 106.021 73.2211V76.6421H104.821V73.3579C104.821 72.7158 104.8 72.0211 104.484 71.5474C104.274 71.2316 103.916 71.0211 103.337 71.0211C102.579 71.0211 101.853 71.5474 101.379 72.2842V76.6526H100.179V70.0737H101.379V70.0632Z" fill="#00326E"/>
<path d="M112.842 76.1581C112.358 76.5476 111.621 76.8002 110.832 76.8002C108.947 76.8002 107.463 75.4318 107.463 73.3581C107.463 71.4318 108.979 69.916 110.895 69.916C111.589 69.916 112.221 70.1265 112.747 70.4844L112.179 71.4739C111.811 71.2002 111.305 71.0318 110.832 71.0318C109.653 71.0318 108.674 72.0739 108.674 73.3686C108.674 74.7897 109.695 75.7055 110.842 75.7055C111.274 75.7055 111.884 75.5055 112.242 75.2423L112.842 76.1581Z" fill="#00326E"/>
<path d="M114.768 73.6634C114.853 74.8002 115.621 75.7792 116.884 75.7792C117.758 75.7792 118.453 75.4634 118.842 74.716L119.716 75.2634C119.053 76.316 118.168 76.8002 116.832 76.8002C114.737 76.8002 113.568 75.2739 113.568 73.3581C113.568 71.4002 115 69.916 116.832 69.916C118.568 69.916 119.832 71.2213 119.832 72.9792C119.832 73.2002 119.8 73.495 119.779 73.6634H114.768ZM114.863 72.695H118.6C118.547 71.7581 117.842 70.9371 116.853 70.9371C115.779 70.9371 115.095 71.716 114.863 72.695Z" fill="#00326E"/>
<path d="M129.116 76.8C126.368 76.8 124.168 74.9473 124.168 72.0421C124.168 69.3158 126.389 67.2842 129.116 67.2842C130.021 67.2842 130.863 67.5473 131.589 67.9894L131 68.9579C130.453 68.6105 129.8 68.4 129.116 68.4C127.042 68.4 125.516 69.9263 125.516 72.0315C125.516 74.2737 127.011 75.6631 129.116 75.6631C129.842 75.6631 130.516 75.4526 131.158 75.021L131.832 75.9579C131.042 76.4947 130.105 76.8 129.116 76.8Z" fill="#00326E"/>
<path d="M133.663 73.6634C133.747 74.8002 134.516 75.7792 135.779 75.7792C136.653 75.7792 137.347 75.4634 137.737 74.716L138.61 75.2634C137.947 76.316 137.063 76.8002 135.726 76.8002C133.632 76.8002 132.463 75.2739 132.463 73.3581C132.463 71.4002 133.895 69.916 135.726 69.916C137.463 69.916 138.726 71.2213 138.726 72.9792C138.726 73.2002 138.695 73.495 138.674 73.6634H133.663ZM133.747 72.695H137.484C137.432 71.7581 136.726 70.9371 135.737 70.9371C134.674 70.9371 133.989 71.716 133.747 72.695Z" fill="#00326E"/>
<path d="M141.432 70.0632V71.1369C141.916 70.3579 142.695 69.9053 143.579 69.9053C144.505 69.9053 145.105 70.2211 145.484 70.7368C145.926 71.3474 146.074 72.2211 146.074 73.2211V76.6421H144.874V73.3579C144.874 72.7158 144.853 72.0211 144.537 71.5474C144.326 71.2316 143.968 71.0211 143.389 71.0211C142.632 71.0211 141.905 71.5474 141.432 72.2842V76.6526H140.232V70.0737H141.432V70.0632Z" fill="#00326E"/>
<path d="M149.326 71.1162V74.0846C149.326 74.253 149.326 74.4004 149.337 74.6004C149.379 75.2951 149.6 75.7056 150.263 75.7056C150.526 75.7056 150.789 75.632 151 75.5267L151.326 76.4846C151 76.653 150.537 76.7793 150.105 76.7793C149.189 76.7793 148.621 76.3688 148.347 75.7583C148.189 75.3899 148.137 74.9056 148.137 74.3899V71.1267H147.253V70.0741H148.137V68.4951H149.337V70.0741H151.179V71.1267H149.326V71.1162Z" fill="#00326E"/>
<path d="M153.116 73.6634C153.2 74.8002 153.968 75.7792 155.232 75.7792C156.105 75.7792 156.8 75.4634 157.189 74.716L158.063 75.2634C157.4 76.316 156.516 76.8002 155.179 76.8002C153.084 76.8002 151.916 75.2739 151.916 73.3581C151.916 71.4002 153.347 69.916 155.179 69.916C156.916 69.916 158.179 71.2213 158.179 72.9792C158.179 73.2002 158.147 73.495 158.126 73.6634H153.116ZM153.211 72.695H156.947C156.895 71.7581 156.189 70.9371 155.2 70.9371C154.137 70.9371 153.453 71.716 153.211 72.695Z" fill="#00326E"/>
<path d="M160.895 71.1579C161.295 70.4526 161.884 69.9053 162.589 69.9053C162.863 69.9053 163.053 69.9368 163.295 69.9895L163.074 71.2632C162.874 71.1684 162.705 71.1263 162.453 71.1263C161.779 71.1263 161.295 71.5263 160.884 72.2316V76.6421H159.684V70.0632H160.884V71.1579H160.895Z" fill="#00326E"/>
<path d="M28.3684 14.1267C26.4842 14.1267 24.7368 14.453 23.1053 15.1056C21.4737 15.7582 20.0526 16.7161 18.821 17.9793C17.5895 19.2425 16.6105 20.8214 15.8947 22.6951C15.1684 24.5793 14.8105 26.7056 14.8105 29.0951C14.8105 31.4846 15.1684 33.6109 15.8947 35.4951C16.621 37.3793 17.6105 38.9688 18.8737 40.2635C20.1368 41.5688 21.5895 42.5372 23.2105 43.1898C24.8421 43.8424 26.5895 44.1688 28.4737 44.1688C30.2842 44.1688 31.8947 43.8951 33.2947 43.3582C34.7052 42.8109 35.9158 42.1161 36.9263 41.2425C37.9368 40.3793 38.7474 39.4003 39.3684 38.3161C39.9789 37.2319 40.4316 36.1898 40.7263 35.1688L53.4105 39.4003C52.8316 41.6424 51.8737 43.8319 50.5368 45.9582C49.2 48.0951 47.4842 50.0109 45.3895 51.7056C43.2947 53.4003 40.8316 54.7793 38.0105 55.8214C35.1895 56.8635 32.0105 57.3898 28.4631 57.3898C24.5579 57.3898 20.8842 56.6846 17.4526 55.274C14.021 53.8635 11.0316 51.8951 8.50525 49.3688C5.97894 46.8424 3.98946 43.853 2.53683 40.4214C1.09473 36.9898 0.368408 33.2109 0.368408 29.0846C0.368408 24.9582 1.07367 21.1688 2.4842 17.6951C3.89473 14.2214 5.84209 11.2425 8.33683 8.74772C10.8316 6.25298 13.7579 4.30561 17.1158 2.89508C20.4737 1.48456 24.1053 0.779297 28.0105 0.779297C31.621 0.779297 34.8631 1.30561 37.7158 2.34772C40.5684 3.40035 43.0421 4.74772 45.1474 6.41087C47.2421 8.07403 48.9474 9.98982 50.2421 12.1582C51.5474 14.3267 52.4842 16.5372 53.0631 18.7688L40.1579 23.1056C39.5052 20.8635 38.2631 18.8003 36.421 16.9267C34.6105 15.0635 31.9158 14.1267 28.3684 14.1267Z" fill="url(#paint0_linear_126_16338)"/>
<path d="M39.3789 38.3059C38.7684 39.3901 37.9474 40.3691 36.9368 41.2322C35.9263 42.0954 34.7158 42.8006 33.3053 43.348C31.8947 43.8954 30.2842 44.1585 28.4842 44.1585C27.7263 44.1585 26.9895 44.0954 26.2737 43.9901C19.5789 43.4006 12.2737 39.2638 3.59999 31.9164C2.47367 30.9585 1.39999 30.0006 0.389465 29.0322C0.389465 29.0533 0.389465 29.0743 0.389465 29.0954C0.389465 33.2112 1.11578 36.9901 2.55789 40.4322C3.99999 43.8638 5.98946 46.8533 8.52631 49.3796C11.0526 51.9059 14.0421 53.8849 17.4737 55.2849C20.9053 56.6954 24.5789 57.4006 28.4842 57.4006C32.021 57.4006 35.2105 56.8743 38.0316 55.8322C40.8526 54.7901 43.3053 53.4112 45.4105 51.7164C47.5053 50.0217 49.221 48.1059 50.5579 45.9691C51.8947 43.8322 52.8526 41.6533 53.4316 39.4112L40.7368 35.1691C40.4421 36.1796 39.9895 37.2217 39.3789 38.3059Z" fill="url(#paint1_linear_126_16338)"/>
<path d="M40.7368 35.1689C40.7263 35.2005 40.1579 40.9374 39.2842 43.6216C36.8 51.2637 32.8421 55.5584 27.5895 57.3795C27.8842 57.39 28.179 57.4005 28.4842 57.4005C32.0211 57.4005 35.2105 56.8742 38.0316 55.8321C40.8526 54.79 43.3053 53.411 45.4105 51.7163C47.5053 50.0216 49.2211 48.1058 50.5579 45.9689C51.8947 43.8321 52.8526 41.6532 53.4316 39.411L40.7368 35.1689Z" fill="url(#paint2_linear_126_16338)"/>
<path d="M38.6947 11.5684C40.9579 15.8527 41.3368 19.3895 40.1895 23.1263V23.1369L53.0947 18.8C52.5158 16.5579 51.5789 14.3579 50.2737 12.1895C48.9684 10.0211 47.2737 8.10528 45.1789 6.44212C43.0842 4.77897 40.6105 3.42107 37.7473 2.37897C34.8947 1.33686 31.6631 0.810547 28.0526 0.810547C32.5895 3.61055 36.4737 7.35792 38.6947 11.5684Z" fill="url(#paint3_linear_126_16338)"/>
<path d="M83.3684 14.1264C81.4842 14.1264 79.7368 14.4528 78.1052 15.1054C76.4737 15.758 75.0526 16.7159 73.821 17.9791C72.5895 19.2422 71.6105 20.8212 70.8947 22.6949C70.1684 24.5791 69.8105 26.7054 69.8105 29.0949C69.8105 31.4843 70.1684 33.6107 70.8947 35.4949C71.621 37.3791 72.6105 38.9686 73.8737 40.2633C75.1368 41.5686 76.5895 42.537 78.2105 43.1896C79.8421 43.8422 81.5895 44.1686 83.4737 44.1686C85.2842 44.1686 86.8947 43.8949 88.2947 43.358C89.7052 42.8107 90.9158 42.1159 91.9263 41.2422C92.9368 40.3791 93.7474 39.4001 94.3684 38.3159C94.9789 37.2317 95.4316 36.1896 95.7263 35.1686L108.421 39.3896C107.842 41.6317 106.884 43.8212 105.547 45.9475C104.211 48.0843 102.495 50.0001 100.4 51.6949C98.3053 53.3896 95.8421 54.7685 93.021 55.8107C90.2 56.8528 87.021 57.3791 83.4737 57.3791C79.5684 57.3791 75.8947 56.6738 72.4631 55.2633C69.0316 53.8528 66.0421 51.8843 63.5158 49.358C60.9895 46.8317 59 43.8422 57.5474 40.4107C56.1052 36.9791 55.3789 33.2001 55.3789 29.0738C55.3789 24.9475 56.0842 21.158 57.4947 17.6843C58.9053 14.2107 60.8526 11.2317 63.3474 8.73697C65.8421 6.24224 68.7684 4.29487 72.1263 2.88435C75.4842 1.47382 79.1158 0.768555 83.021 0.768555C86.6316 0.768555 89.8737 1.29487 92.7263 2.33698C95.5789 3.38961 98.0526 4.73698 100.158 6.40014C102.253 8.06329 103.958 9.97908 105.253 12.1475C106.558 14.3159 107.495 16.5264 108.074 18.758L95.1684 23.0949C94.5158 20.8528 93.2737 18.7896 91.4316 16.9159C89.6105 15.0633 86.9158 14.1264 83.3684 14.1264Z" fill="url(#paint4_linear_126_16338)"/>
<path d="M94.3789 38.3049C93.7684 39.3891 92.9473 40.3681 91.9368 41.2312C90.9263 42.0944 89.7158 42.7997 88.3052 43.347C86.8947 43.8944 85.2842 44.1576 83.4842 44.1576C82.7263 44.1576 81.9895 44.0944 81.2737 43.9891C74.5789 43.3997 67.2737 39.2628 58.6 31.9155C57.4737 30.9576 56.4 29.9997 55.3895 29.0312C55.3895 29.0523 55.3895 29.0734 55.3895 29.0944C55.3895 33.2102 56.1158 36.9891 57.5579 40.4313C59 43.8628 60.9895 46.8523 63.5263 49.3786C66.0526 51.9049 69.0421 53.8839 72.4737 55.2839C75.9052 56.6944 79.5789 57.3997 83.4842 57.3997C87.021 57.3997 90.2105 56.8734 93.0316 55.8312C95.8526 54.7891 98.3052 53.4102 100.411 51.7155C102.505 50.0207 104.221 48.1049 105.558 45.9681C106.895 43.8312 107.853 41.6523 108.432 39.4102L95.7474 35.1786C95.4421 36.1786 94.9895 37.2207 94.3789 38.3049Z" fill="url(#paint5_linear_126_16338)"/>
<path d="M95.7368 35.1689C95.7263 35.2005 95.1579 40.9374 94.2842 43.6216C91.8 51.2637 87.8421 55.5584 82.5894 57.3795C82.8842 57.39 83.1789 57.4005 83.4842 57.4005C87.021 57.4005 90.2105 56.8742 93.0316 55.8321C95.8526 54.79 98.3052 53.411 100.411 51.7163C102.505 50.0216 104.221 48.1058 105.558 45.9689C106.895 43.8321 107.853 41.6532 108.432 39.411L95.7368 35.1689Z" fill="url(#paint6_linear_126_16338)"/>
<path d="M93.6947 11.5684C95.9579 15.8527 96.3368 19.3895 95.1894 23.1263V23.1369L108.095 18.8C107.516 16.5579 106.579 14.3579 105.274 12.1895C103.968 10.0211 102.274 8.10528 100.179 6.44212C98.0842 4.77897 95.6105 3.42107 92.7473 2.37897C89.8947 1.33686 86.6631 0.810547 83.0526 0.810547C87.5895 3.61055 91.4737 7.35792 93.6947 11.5684Z" fill="url(#paint7_linear_126_16338)"/>
<path d="M138.242 14.1267C136.358 14.1267 134.611 14.453 132.979 15.1056C131.347 15.7582 129.926 16.7161 128.695 17.9793C127.463 19.2425 126.484 20.8214 125.768 22.6951C125.042 24.5793 124.684 26.7056 124.684 29.0951C124.684 31.4846 125.042 33.6109 125.768 35.4951C126.495 37.3793 127.484 38.9688 128.747 40.2635C130.011 41.5688 131.463 42.5372 133.084 43.1898C134.716 43.8424 136.463 44.1688 138.347 44.1688C140.158 44.1688 141.768 43.8951 143.168 43.3582C144.579 42.8109 145.789 42.1161 146.8 41.2425C147.811 40.3793 148.621 39.4003 149.242 38.3161C149.853 37.2319 150.305 36.1898 150.6 35.1688L163.284 39.4003C162.705 41.6424 161.747 43.8319 160.411 45.9582C159.074 48.0951 157.358 50.0109 155.263 51.7056C153.168 53.4003 150.705 54.7793 147.884 55.8214C145.063 56.8635 141.884 57.3898 138.337 57.3898C134.432 57.3898 130.758 56.6846 127.326 55.274C123.895 53.8635 120.905 51.8951 118.379 49.3688C115.853 46.8424 113.863 43.853 112.411 40.4214C110.968 36.9898 110.242 33.2109 110.242 29.0846C110.242 24.9582 110.947 21.1688 112.358 17.6951C113.768 14.2214 115.716 11.2425 118.211 8.74772C120.705 6.25298 123.632 4.30561 126.989 2.89508C130.347 1.48456 133.979 0.779297 137.884 0.779297C141.495 0.779297 144.737 1.30561 147.589 2.34772C150.442 3.40035 152.916 4.74772 155.021 6.41087C157.116 8.07403 158.821 9.98982 160.116 12.1582C161.421 14.3267 162.358 16.5372 162.937 18.7688L150.032 23.1056C149.379 20.8635 148.137 18.8003 146.295 16.9267C144.474 15.0635 141.779 14.1267 138.242 14.1267Z" fill="url(#paint8_linear_126_16338)"/>
<path d="M149.242 38.3059C148.632 39.3901 147.811 40.3691 146.8 41.2322C145.789 42.0954 144.579 42.8006 143.168 43.348C141.758 43.8954 140.147 44.1585 138.347 44.1585C137.589 44.1585 136.853 44.0954 136.137 43.9901C129.442 43.4006 122.137 39.2638 113.463 31.9164C112.337 30.9585 111.263 30.0006 110.253 29.0322C110.253 29.0533 110.253 29.0743 110.253 29.0954C110.253 33.2112 110.979 36.9901 112.421 40.4322C113.863 43.8638 115.853 46.8533 118.389 49.3796C120.916 51.9059 123.905 53.8849 127.337 55.2849C130.768 56.6954 134.442 57.4006 138.347 57.4006C141.884 57.4006 145.074 56.8743 147.895 55.8322C150.716 54.7901 153.168 53.4112 155.274 51.7164C157.368 50.0217 159.084 48.1059 160.421 45.9691C161.758 43.8322 162.716 41.6533 163.295 39.4112L150.611 35.1796C150.316 36.1796 149.863 37.2217 149.242 38.3059Z" fill="url(#paint9_linear_126_16338)"/>
<path d="M150.6 35.1689C150.589 35.2005 150.021 40.9374 149.147 43.6216C146.663 51.2637 142.705 55.5584 137.453 57.3795C137.747 57.39 138.042 57.4005 138.347 57.4005C141.884 57.4005 145.074 56.8742 147.895 55.8321C150.716 54.79 153.168 53.411 155.274 51.7163C157.368 50.0216 159.084 48.1058 160.421 45.9689C161.758 43.8321 162.716 41.6532 163.295 39.411L150.6 35.1689Z" fill="url(#paint10_linear_126_16338)"/>
<path d="M148.558 11.5684C150.821 15.8527 151.2 19.3895 150.053 23.1263V23.1369L162.958 18.8C162.379 16.5579 161.442 14.3579 160.137 12.1895C158.832 10.0211 157.137 8.10528 155.042 6.44212C152.947 4.77897 150.474 3.42107 147.611 2.37897C144.758 1.33686 141.526 0.810547 137.916 0.810547C142.453 3.61055 146.347 7.35792 148.558 11.5684Z" fill="url(#paint11_linear_126_16338)"/>
<defs>
<linearGradient id="paint0_linear_126_16338" x1="26.9079" y1="0.929823" x2="26.9079" y2="57.4759" gradientUnits="userSpaceOnUse">
<stop stop-color="#FCC30B"/>
<stop offset="0.9958" stop-color="#E48E0A"/>
</linearGradient>
<linearGradient id="paint1_linear_126_16338" x1="53.6842" y1="43.2126" x2="0.350622" y2="43.2126" gradientUnits="userSpaceOnUse">
<stop stop-color="#FCC30B"/>
<stop offset="0.9958" stop-color="#D8740A"/>
</linearGradient>
<linearGradient id="paint2_linear_126_16338" x1="40.5047" y1="57.1864" x2="40.5047" y2="35.218" gradientUnits="userSpaceOnUse">
<stop offset="0.000464109" stop-color="#D1640A"/>
<stop offset="0.9958" stop-color="#E28A0A"/>
</linearGradient>
<linearGradient id="paint3_linear_126_16338" x1="40.5754" y1="0.877494" x2="40.5754" y2="20.1755" gradientUnits="userSpaceOnUse">
<stop stop-color="#F4B20B"/>
<stop offset="1" stop-color="#D1650A"/>
</linearGradient>
<linearGradient id="paint4_linear_126_16338" x1="81.9079" y1="0.929607" x2="81.9079" y2="57.4757" gradientUnits="userSpaceOnUse">
<stop stop-color="#00A9E7"/>
<stop offset="0.9958" stop-color="#005FB4"/>
</linearGradient>
<linearGradient id="paint5_linear_126_16338" x1="108.684" y1="43.2117" x2="55.3506" y2="43.2117" gradientUnits="userSpaceOnUse">
<stop offset="0.000406095" stop-color="#00A6E4"/>
<stop offset="0.9996" stop-color="#00538F"/>
</linearGradient>
<linearGradient id="paint6_linear_126_16338" x1="95.5047" y1="57.1497" x2="95.5047" y2="35.2628" gradientUnits="userSpaceOnUse">
<stop stop-color="#003D7F"/>
<stop offset="1" stop-color="#005CAF"/>
</linearGradient>
<linearGradient id="paint7_linear_126_16338" x1="95.5753" y1="0.78981" x2="95.5753" y2="20.2691" gradientUnits="userSpaceOnUse">
<stop stop-color="#00A9E7"/>
<stop offset="0.9991" stop-color="#005593"/>
</linearGradient>
<linearGradient id="paint8_linear_126_16338" x1="136.776" y1="0.929823" x2="136.776" y2="57.4759" gradientUnits="userSpaceOnUse">
<stop stop-color="#00A9E7"/>
<stop offset="0.9958" stop-color="#005FB4"/>
</linearGradient>
<linearGradient id="paint9_linear_126_16338" x1="163.553" y1="43.2126" x2="110.219" y2="43.2126" gradientUnits="userSpaceOnUse">
<stop offset="0.000406095" stop-color="#00A6E4"/>
<stop offset="0.9996" stop-color="#00538F"/>
</linearGradient>
<linearGradient id="paint10_linear_126_16338" x1="150.373" y1="57.1606" x2="150.373" y2="35.2307" gradientUnits="userSpaceOnUse">
<stop stop-color="#003D7F"/>
<stop offset="0.9958" stop-color="#005CAF"/>
</linearGradient>
<linearGradient id="paint11_linear_126_16338" x1="150.444" y1="0.78981" x2="150.444" y2="20.2662" gradientUnits="userSpaceOnUse">
<stop stop-color="#00A9E7"/>
<stop offset="0.9958" stop-color="#005593"/>
</linearGradient>
</defs>
</svg>
