<svg width="227" height="142" viewBox="0 0 227 142" fill="none" xmlns="http://www.w3.org/2000/svg">
<path d="M40.03 106.71C40.7 106.71 41.34 106.49 41.92 106.07L42.64 107.04C41.87 107.58 40.97 107.88 40.01 107.88C37.43 107.88 35.39 106.12 35.39 103.41C35.39 100.87 37.48 98.9404 40.03 98.9404C40.91 98.9404 41.71 99.2004 42.42 99.6604L41.79 100.67C41.27 100.34 40.67 100.11 40.03 100.11C38.15 100.11 36.8 101.5 36.8 103.4C36.8 105.42 38.1 106.71 40.03 106.71Z" fill="#94A5A6"/>
<path d="M49.6101 104.611C49.6101 106.441 48.2401 107.881 46.4001 107.881C44.5501 107.881 43.1901 106.441 43.1901 104.611C43.1901 102.781 44.5501 101.341 46.4001 101.341C48.2401 101.341 49.6101 102.781 49.6101 104.611ZM46.4001 102.491C45.2901 102.491 44.4901 103.441 44.4901 104.611C44.4901 105.771 45.2901 106.731 46.4001 106.731C47.5101 106.731 48.3101 105.771 48.3101 104.611C48.3101 103.441 47.5101 102.491 46.4001 102.491Z" fill="#94A5A6"/>
<path d="M52.17 101.491L52.21 102.321C52.65 101.671 53.47 101.351 54.2 101.351C55.96 101.351 57.26 102.811 57.26 104.631C57.26 106.311 56.03 107.891 54.17 107.891C53.47 107.891 52.73 107.591 52.23 107.081V110.831H50.96V101.501H52.17V101.491ZM52.23 105.831C52.65 106.421 53.34 106.731 53.96 106.731C55.32 106.731 55.96 105.621 55.96 104.601C55.96 103.491 55.21 102.491 53.99 102.491C53.35 102.491 52.56 102.861 52.24 103.601V105.831H52.23Z" fill="#94A5A6"/>
<path d="M59.1001 101.49L60.6301 105.98H60.6501L62.2301 101.49H63.6101L60.0901 110.56L58.9701 110.12L59.9601 107.5L57.6901 101.49H59.1001Z" fill="#94A5A6"/>
<path d="M65.79 102.461C66.16 101.811 66.72 101.341 67.37 101.341C67.64 101.341 67.85 101.361 68.09 101.431L67.83 102.711C67.64 102.611 67.47 102.571 67.24 102.571C66.64 102.571 66.17 102.931 65.82 103.531V107.731H64.55V101.491H65.76L65.79 102.461Z" fill="#94A5A6"/>
<path d="M68.87 100.35V99.0303H70.14V100.35H68.87ZM68.87 107.73V101.49H70.14V107.73H68.87Z" fill="#94A5A6"/>
<path d="M74.56 107.731C72.8 107.731 71.5 106.351 71.5 104.521C71.5 102.841 72.73 101.341 74.58 101.341C75.3 101.341 76.06 101.651 76.55 102.191L76.57 101.491H77.78V107.401C77.78 108.051 77.67 108.601 77.43 109.041C76.87 110.091 75.79 110.501 74.63 110.501C73.67 110.501 72.62 110.221 71.83 109.661L72.32 108.591C72.92 109.031 73.85 109.361 74.59 109.361C75.61 109.361 76.5 108.851 76.5 107.601V106.801C76.08 107.411 75.28 107.731 74.56 107.731ZM76.52 103.391C76.1 102.801 75.41 102.491 74.79 102.491C73.43 102.491 72.79 103.531 72.79 104.551C72.79 105.661 73.54 106.591 74.76 106.591C75.4 106.591 76.19 106.221 76.51 105.481V103.391H76.52Z" fill="#94A5A6"/>
<path d="M80.85 102.45C81.32 101.75 82.06 101.34 82.85 101.34C83.68 101.34 84.26 101.64 84.63 102.13C85.06 102.72 85.19 103.55 85.19 104.49V107.74H83.92V104.61C83.92 104.04 83.9 103.41 83.62 102.98C83.43 102.68 83.1 102.5 82.6 102.5C81.93 102.5 81.27 102.96 80.86 103.61V107.74H79.59V98.4805H80.86V102.45H80.85Z" fill="#94A5A6"/>
<path d="M88.32 102.59V105.3C88.32 105.46 88.32 105.61 88.33 105.79C88.37 106.38 88.56 106.73 89.12 106.73C89.39 106.73 89.63 106.66 89.82 106.56L90.19 107.56C89.86 107.75 89.38 107.86 88.94 107.86C88.04 107.86 87.47 107.44 87.22 106.8C87.08 106.45 87.03 106.02 87.03 105.57V102.6H86.22V101.5H87.03L87.09 100.03H88.3V101.5H90.02V102.6H88.32V102.59Z" fill="#94A5A6"/>
<path d="M98.54 106.71C99.21 106.71 99.85 106.49 100.43 106.07L101.15 107.04C100.38 107.58 99.48 107.88 98.52 107.88C95.94 107.88 93.9 106.12 93.9 103.41C93.9 100.87 95.99 98.9404 98.54 98.9404C99.42 98.9404 100.22 99.2004 100.93 99.6604L100.3 100.67C99.78 100.34 99.18 100.11 98.54 100.11C96.66 100.11 95.31 101.5 95.31 103.4C95.31 105.42 96.61 106.71 98.54 106.71Z" fill="#94A5A6"/>
<path d="M103.65 107.731H102.38V98.4707H103.65V107.731Z" fill="#94A5A6"/>
<path d="M108.18 106.811C109.01 106.811 109.61 106.501 109.99 105.821L110.88 106.401C110.24 107.411 109.4 107.881 108.12 107.881C106.16 107.881 105.01 106.461 105.01 104.621C105.01 102.761 106.37 101.341 108.12 101.341C109.8 101.341 111.02 102.571 111.02 104.241C111.02 104.461 111 104.751 110.96 104.931H106.3C106.38 105.951 107.07 106.811 108.18 106.811ZM108.14 102.401C107.18 102.401 106.59 103.081 106.36 103.951H109.69C109.65 103.101 109.02 102.401 108.14 102.401Z" fill="#94A5A6"/>
<path d="M116.11 107.731L116.07 107.101C115.59 107.661 115.01 107.881 114.24 107.881C113.08 107.881 112.02 107.291 112.02 105.951C112.02 104.381 113.43 103.891 114.78 103.891C115.1 103.891 115.5 103.931 116 104.031V103.841C116 102.931 115.58 102.401 114.58 102.401C113.86 102.401 113.14 102.671 112.62 102.961L112.26 101.941C112.94 101.621 113.9 101.351 114.78 101.351C116.57 101.351 117.27 102.341 117.27 103.951V107.741H116.11V107.731ZM116.01 104.921C115.58 104.831 115.26 104.811 114.95 104.811C114.22 104.811 113.27 105.011 113.27 105.901C113.27 106.601 113.81 106.871 114.43 106.871C115.03 106.871 115.54 106.571 116.01 106.181V104.921Z" fill="#94A5A6"/>
<path d="M120.32 102.461C120.69 101.811 121.25 101.341 121.9 101.341C122.17 101.341 122.38 101.361 122.62 101.431L122.36 102.711C122.17 102.611 122 102.571 121.77 102.571C121.17 102.571 120.7 102.931 120.35 103.531V107.731H119.08V101.491H120.29L120.32 102.461Z" fill="#94A5A6"/>
<path d="M127.15 107.731L127.11 107.101C126.63 107.661 126.05 107.881 125.28 107.881C124.12 107.881 123.06 107.291 123.06 105.951C123.06 104.381 124.47 103.891 125.82 103.891C126.14 103.891 126.54 103.931 127.04 104.031V103.841C127.04 102.931 126.62 102.401 125.62 102.401C124.9 102.401 124.18 102.671 123.66 102.961L123.3 101.941C123.98 101.621 124.94 101.351 125.82 101.351C127.61 101.351 128.31 102.341 128.31 103.951V107.741H127.15V107.731ZM127.05 104.921C126.62 104.831 126.3 104.811 125.99 104.811C125.26 104.811 124.31 105.011 124.31 105.901C124.31 106.601 124.85 106.871 125.47 106.871C126.07 106.871 126.58 106.571 127.05 106.181V104.921Z" fill="#94A5A6"/>
<path d="M131.32 101.491L131.36 102.481C131.83 101.751 132.58 101.341 133.38 101.341C134.21 101.341 134.79 101.641 135.16 102.131C135.59 102.721 135.72 103.551 135.72 104.491V107.741H134.45V104.611C134.45 104.041 134.43 103.411 134.15 102.981C133.96 102.681 133.63 102.501 133.13 102.501C132.46 102.501 131.8 102.961 131.39 103.611V107.741H130.12V101.501H131.32V101.491Z" fill="#94A5A6"/>
<path d="M142.19 107.231C141.7 107.651 140.98 107.881 140.2 107.881C138.4 107.881 137 106.571 137 104.611C137 102.781 138.41 101.341 140.25 101.341C140.97 101.341 141.6 101.551 142.13 101.931L141.51 102.931C141.15 102.661 140.71 102.491 140.25 102.491C139.16 102.491 138.3 103.441 138.3 104.611C138.3 105.881 139.21 106.731 140.25 106.731C140.67 106.731 141.2 106.561 141.55 106.291L142.19 107.231Z" fill="#94A5A6"/>
<path d="M146.03 106.811C146.86 106.811 147.46 106.501 147.84 105.821L148.73 106.401C148.09 107.411 147.25 107.881 145.97 107.881C144.01 107.881 142.86 106.461 142.86 104.621C142.86 102.761 144.22 101.341 145.97 101.341C147.65 101.341 148.87 102.571 148.87 104.241C148.87 104.461 148.85 104.751 148.81 104.931H144.15C144.23 105.951 144.92 106.811 146.03 106.811ZM145.99 102.401C145.03 102.401 144.44 103.081 144.21 103.951H147.54C147.5 103.101 146.87 102.401 145.99 102.401Z" fill="#94A5A6"/>
<path d="M157.54 106.71C158.21 106.71 158.85 106.49 159.43 106.07L160.15 107.04C159.39 107.58 158.48 107.88 157.52 107.88C154.94 107.88 152.9 106.12 152.9 103.41C152.9 100.87 154.99 98.9404 157.54 98.9404C158.42 98.9404 159.22 99.2004 159.93 99.6604L159.3 100.67C158.78 100.34 158.18 100.11 157.54 100.11C155.66 100.11 154.31 101.5 154.31 103.4C154.31 105.42 155.62 106.71 157.54 106.71Z" fill="#94A5A6"/>
<path d="M163.88 106.811C164.71 106.811 165.31 106.501 165.69 105.821L166.58 106.401C165.94 107.411 165.1 107.881 163.82 107.881C161.86 107.881 160.71 106.461 160.71 104.621C160.71 102.761 162.07 101.341 163.82 101.341C165.5 101.341 166.72 102.571 166.72 104.241C166.72 104.461 166.7 104.751 166.66 104.931H162C162.07 105.951 162.76 106.811 163.88 106.811ZM163.84 102.401C162.88 102.401 162.28 103.081 162.06 103.951H165.39C165.34 103.101 164.71 102.401 163.84 102.401Z" fill="#94A5A6"/>
<path d="M169.28 101.491L169.32 102.481C169.79 101.751 170.54 101.341 171.34 101.341C172.17 101.341 172.75 101.641 173.12 102.131C173.55 102.721 173.68 103.551 173.68 104.491V107.741H172.41V104.611C172.41 104.041 172.39 103.411 172.11 102.981C171.92 102.681 171.59 102.501 171.09 102.501C170.42 102.501 169.76 102.961 169.35 103.611V107.741H168.08V101.501H169.28V101.491Z" fill="#94A5A6"/>
<path d="M176.81 102.59V105.3C176.81 105.46 176.81 105.61 176.82 105.79C176.86 106.38 177.05 106.73 177.61 106.73C177.88 106.73 178.12 106.66 178.31 106.56L178.68 107.56C178.35 107.75 177.87 107.86 177.43 107.86C176.53 107.86 175.96 107.44 175.71 106.8C175.57 106.45 175.52 106.02 175.52 105.57V102.6H174.71V101.5H175.52L175.58 100.03H176.79V101.5H178.51V102.6H176.81V102.59Z" fill="#94A5A6"/>
<path d="M182.39 106.811C183.22 106.811 183.82 106.501 184.2 105.821L185.09 106.401C184.45 107.411 183.61 107.881 182.33 107.881C180.37 107.881 179.22 106.461 179.22 104.621C179.22 102.761 180.58 101.341 182.33 101.341C184.01 101.341 185.23 102.571 185.23 104.241C185.23 104.461 185.21 104.751 185.17 104.931H180.51C180.59 105.951 181.28 106.811 182.39 106.811ZM182.35 102.401C181.39 102.401 180.79 103.081 180.57 103.951H183.9C183.86 103.101 183.23 102.401 182.35 102.401Z" fill="#94A5A6"/>
<path d="M187.83 102.461C188.2 101.811 188.76 101.341 189.41 101.341C189.68 101.341 189.89 101.361 190.13 101.431L189.87 102.711C189.68 102.611 189.51 102.571 189.28 102.571C188.68 102.571 188.21 102.931 187.86 103.531V107.731H186.59V101.491H187.8L187.83 102.461Z" fill="#94A5A6"/>
<path d="M69.06 39.8302C73.84 45.7902 74.01 53.6002 73.9 56.4302C73.9 56.4802 73.9 56.5302 73.9 56.5402C73.9 56.5802 73.9 56.6202 73.89 56.6602L85.46 52.7702C84.91 50.6402 84.01 48.5302 82.77 46.4702C81.53 44.4002 79.91 42.5802 77.91 40.9902C75.91 39.4102 73.55 38.1202 70.83 37.1202C68.87 36.4002 66.71 35.9402 64.37 35.7402C66.18 36.8302 67.74 38.1902 69.06 39.8302Z" fill="#94A5A6"/>
<path d="M73.91 68.4502C73.91 68.5502 73.9 68.6602 73.9 68.7802C73.9 68.8002 73.9 68.8402 73.89 68.9002C73.78 71.8402 73.01 79.9102 68.16 85.6302C66.77 87.2602 65.17 88.5602 63.36 89.5202C66.19 89.4002 68.77 88.9102 71.09 88.0502C73.78 87.0502 76.12 85.7402 78.11 84.1202C80.11 82.5002 81.74 80.6802 83.02 78.6502C84.29 76.6202 85.21 74.5402 85.76 72.4002L73.91 68.4502Z" fill="#94A5A6"/>
<path d="M52.82 88.03C57.29 89.59 62.31 88.77 65.83 85.61C65.99 85.47 66.14 85.33 66.29 85.18C70.96 80.63 72.46 73.47 72.91 70.34C72.75 70.68 72.58 71.02 72.38 71.37C71.79 72.4 71.02 73.33 70.06 74.16C69.09 74.99 67.94 75.66 66.6 76.17C65.26 76.69 63.72 76.94 62 76.94C60.21 76.94 58.54 76.63 56.99 76.01C55.44 75.39 54.06 74.46 52.86 73.22C51.65 71.98 50.71 70.47 50.02 68.67C49.33 66.88 48.99 64.85 48.99 62.58C48.99 60.31 49.33 58.28 50.02 56.49C50.71 54.7 51.64 53.2 52.81 52C53.98 50.8 55.34 49.88 56.89 49.26C58.44 48.64 60.11 48.33 61.9 48.33C65.27 48.33 67.84 49.23 69.6 51.02C71.23 52.68 72.36 54.48 73.01 56.44C73.01 56.37 73.02 56.3 73.02 56.22C72.99 54.68 72.59 45.82 67.01 40.08C66.86 39.92 66.7 39.76 66.54 39.61C63.25 36.49 58.51 35.41 54.15 36.63C53.15 36.91 52.18 37.25 51.22 37.65C48.02 38.99 45.23 40.85 42.85 43.23C40.47 45.61 38.61 48.45 37.27 51.75C35.93 55.06 35.26 58.67 35.26 62.6C35.26 66.53 35.95 70.12 37.33 73.4C38.71 76.67 40.6 79.51 43.01 81.92C45.42 84.33 48.26 86.21 51.53 87.55C51.95 87.72 52.38 87.88 52.82 88.03Z" fill="#94A5A6"/>
<path d="M121.24 39.8302C126.02 45.7902 126.19 53.6002 126.08 56.4302C126.08 56.4802 126.08 56.5302 126.08 56.5402C126.08 56.5802 126.08 56.6202 126.07 56.6602L137.64 52.7702C137.09 50.6402 136.19 48.5302 134.95 46.4702C133.71 44.4002 132.09 42.5802 130.09 40.9902C128.09 39.4102 125.73 38.1202 123.01 37.1202C121.05 36.4002 118.89 35.9402 116.55 35.7402C118.35 36.8302 119.92 38.1902 121.24 39.8302Z" fill="#94A5A6"/>
<path d="M126.09 68.4502C126.09 68.5502 126.08 68.6602 126.08 68.7802C126.08 68.8002 126.08 68.8402 126.07 68.9002C125.96 71.8402 125.19 79.9102 120.34 85.6302C118.95 87.2602 117.35 88.5602 115.54 89.5202C118.37 89.4002 120.95 88.9102 123.27 88.0502C125.96 87.0502 128.3 85.7402 130.29 84.1202C132.29 82.5002 133.92 80.6802 135.2 78.6502C136.47 76.6202 137.39 74.5402 137.94 72.4002L126.09 68.4502Z" fill="#94A5A6"/>
<path d="M105 88.03C109.47 89.59 114.49 88.77 118.01 85.61C118.17 85.47 118.32 85.33 118.47 85.18C123.14 80.63 124.64 73.47 125.09 70.34C124.93 70.68 124.76 71.02 124.56 71.37C123.97 72.4 123.2 73.33 122.24 74.16C121.27 74.99 120.12 75.66 118.78 76.17C117.44 76.69 115.9 76.94 114.18 76.94C112.39 76.94 110.72 76.63 109.17 76.01C107.62 75.39 106.24 74.46 105.04 73.22C103.83 71.98 102.89 70.47 102.2 68.67C101.51 66.88 101.17 64.85 101.17 62.58C101.17 60.31 101.51 58.28 102.2 56.49C102.89 54.7 103.82 53.2 104.99 52C106.16 50.8 107.52 49.88 109.07 49.26C110.62 48.64 112.29 48.33 114.08 48.33C117.45 48.33 120.02 49.23 121.78 51.02C123.41 52.68 124.54 54.48 125.19 56.44C125.19 56.37 125.2 56.3 125.2 56.22C125.17 54.68 124.77 45.82 119.19 40.08C119.04 39.92 118.88 39.76 118.72 39.61C115.43 36.49 110.69 35.41 106.33 36.63C105.33 36.91 104.36 37.25 103.4 37.65C100.2 38.99 97.4101 40.85 95.0301 43.23C92.6501 45.61 90.7901 48.45 89.4501 51.75C88.1101 55.06 87.4401 58.67 87.4401 62.6C87.4401 66.53 88.1301 70.12 89.5101 73.4C90.8901 76.67 92.7801 79.51 95.1901 81.92C97.6001 84.33 100.44 86.21 103.71 87.55C104.13 87.72 104.56 87.88 105 88.03Z" fill="#94A5A6"/>
<path d="M173.42 39.8302C178.2 45.7902 178.37 53.6002 178.26 56.4302C178.26 56.4802 178.26 56.5302 178.26 56.5402C178.26 56.5802 178.26 56.6202 178.25 56.6602L189.82 52.7702C189.27 50.6402 188.37 48.5302 187.13 46.4702C185.89 44.4002 184.27 42.5802 182.27 40.9902C180.27 39.4102 177.91 38.1202 175.19 37.1202C173.23 36.4002 171.07 35.9402 168.73 35.7402C170.53 36.8302 172.1 38.1902 173.42 39.8302Z" fill="#94A5A6"/>
<path d="M178.27 68.4502C178.27 68.5502 178.26 68.6602 178.26 68.7802C178.26 68.8002 178.26 68.8402 178.25 68.9002C178.14 71.8402 177.37 79.9102 172.52 85.6302C171.13 87.2602 169.53 88.5602 167.72 89.5202C170.55 89.4002 173.13 88.9102 175.45 88.0502C178.14 87.0502 180.48 85.7402 182.47 84.1202C184.47 82.5002 186.1 80.6802 187.38 78.6502C188.65 76.6202 189.57 74.5402 190.12 72.4002L178.27 68.4502Z" fill="#94A5A6"/>
<path d="M157.18 88.03C161.65 89.59 166.67 88.77 170.19 85.61C170.35 85.47 170.5 85.33 170.65 85.18C175.32 80.63 176.82 73.47 177.27 70.34C177.11 70.68 176.94 71.02 176.74 71.37C176.15 72.4 175.38 73.33 174.42 74.16C173.45 74.99 172.3 75.66 170.96 76.17C169.62 76.69 168.08 76.94 166.36 76.94C164.57 76.94 162.9 76.63 161.35 76.01C159.8 75.39 158.42 74.46 157.22 73.22C156.01 71.98 155.07 70.47 154.38 68.67C153.69 66.88 153.35 64.85 153.35 62.58C153.35 60.31 153.69 58.28 154.38 56.49C155.07 54.7 156 53.2 157.17 52C158.34 50.8 159.7 49.88 161.25 49.26C162.8 48.64 164.47 48.33 166.26 48.33C169.63 48.33 172.2 49.23 173.96 51.02C175.59 52.68 176.72 54.48 177.37 56.44C177.37 56.37 177.38 56.3 177.38 56.22C177.35 54.68 176.95 45.82 171.37 40.08C171.22 39.92 171.06 39.76 170.9 39.61C167.61 36.49 162.87 35.41 158.51 36.63C157.51 36.91 156.54 37.25 155.58 37.65C152.38 38.99 149.59 40.85 147.21 43.23C144.83 45.61 142.97 48.45 141.63 51.75C140.29 55.06 139.62 58.67 139.62 62.6C139.62 66.53 140.31 70.12 141.69 73.4C143.07 76.67 144.96 79.51 147.37 81.92C149.78 84.33 152.62 86.21 155.89 87.55C156.31 87.72 156.74 87.88 157.18 88.03Z" fill="#94A5A6"/>
</svg>
