<svg width="32" height="32" viewBox="0 0 32 32" fill="none" xmlns="http://www.w3.org/2000/svg">
<path fill-rule="evenodd" clip-rule="evenodd" d="M25.549 14.6566C25.5165 16.1281 25.1952 17.5787 24.6035 18.9256C24.0117 20.2726 23.1612 21.4895 22.1003 22.5069C21.0394 23.5243 19.7891 24.3223 18.4206 24.8553C17.0521 25.3882 15.5922 25.6458 14.1245 25.6132C12.6567 25.5806 11.2097 25.2585 9.86606 24.6653C8.52245 24.0721 7.30854 23.2194 6.29365 22.1559C5.27875 21.0924 4.48275 19.839 3.95109 18.4671C3.41942 17.0952 3.16251 15.6317 3.19502 14.1603C3.26067 11.1886 4.50121 8.36482 6.64373 6.31006C8.78624 4.25531 11.6552 3.13793 14.6196 3.20375C17.5839 3.26957 20.4007 4.51318 22.4504 6.66101C24.5 8.80884 25.6147 11.685 25.549 14.6566ZM25.6033 23.403C27.8963 20.5257 29.0033 16.8774 28.6969 13.2075C28.3906 9.53755 26.6941 6.1245 23.9559 3.66929C21.2178 1.21409 17.6458 -0.0968965 13.9735 0.00558569C10.3013 0.108068 6.80757 1.61624 4.2099 4.22035C1.61224 6.82447 0.1078 10.3268 0.00557186 14.0082C-0.0966567 17.6895 1.21108 21.2704 3.66021 24.0154C6.10934 26.7603 9.51395 28.461 13.1748 28.7681C16.8357 29.0753 20.4749 27.9655 23.3451 25.6668L29.2142 31.5506C29.5154 31.8422 29.9189 32.0036 30.3376 31.9999C30.7564 31.9963 31.1569 31.8279 31.453 31.5311C31.7491 31.2342 31.9171 30.8327 31.9207 30.4129C31.9244 29.9931 31.7634 29.5887 31.4725 29.2867L25.6033 23.403Z" fill="white"/>
</svg>
